PathFileType   4   (X/Y/Z)
DataRate	CameraRate	NumFrames	NumMarkers	Units	OrigDataRate	OrigDataStartFrame	OrigNumFrames
120.0	120.0	5	37	mm	120.0	59	155
Frame#	Time	midhip	hip_r	hip_l	knee_r	knee_l	ankle_r	ankle_l	midasis	asis_r	asis_l	psis_r	psis_l	epicondLat_r	epicondLat_l	epicondMed_r	epicondMed_l	malleolusLat_r	malleolusLat_l	malleolusMedv_r	malleolusMedv_l	neck	subclavicle_r	subclavicle_l	sternalnotch	xyphoidprocess	thighwand_r	thighwand_l	upperleg1_r	upperleg1_l	upperleg2_r	upperleg2_l	shankwand_r	shankwand_l	lowerleg1_r	lowerleg1_l	toe_r	toe_l
 	 	X1	Y1	Z1	X2	Y2	Z2	X3	Y3	Z3	X4	Y4	Z4	X5	Y5	Z5	X6	Y6	Z6	X7	Y7	Z7	X8	Y8	Z8	X9	Y9	Z9	X10	Y10	Z10	X11	Y11	Z11	X12	Y12	Z12	X13	Y13	Z13	X14	Y14	Z14	X15	Y15	Z15	X16	Y16	Z16	X17	Y17	Z17	X18	Y18	Z18	X19	Y19	Z19	X20	Y20	Z20	X21	Y21	Z21	X22	Y22	Z22	X23	Y23	Z23	X24	Y24	Z24	X25	Y25	Z25	X26	Y26	Z26	X27	Y27	Z27	X28	Y28	Z28	X29	Y29	Z29	X30	Y30	Z30	X31	Y31	Z31	X32	Y32	Z32	X33	Y33	Z33	X34	Y34	Z34	X35	Y35	Z35	X36	Y36	Z36	X37	Y37	Z37

	59	0.72500	998.548	830.247	-183.629	996.807	813.073	-118.475	991.615	808.330	-235.736	924.557	448.335	-148.063	1136.875	467.681	-244.569	791.191	71.547	-181.869	1246.178	73.911	-247.374	1054.432	890.476	-177.029	1050.411	893.415	-77.409	1058.452	887.537	-276.648	897.672	920.990	-166.914	900.805	917.375	-221.655	928.383	443.147	-93.442	1153.253	475.996	-295.881	923.458	449.942	-192.747	1127.280	445.334	-204.969	779.142	72.532	-145.316	1245.644	74.037	-285.870	811.180	84.561	-210.241	1261.335	96.309	-224.108	960.338	1330.900	-167.607	1055.537	1252.602	-121.288	1053.262	1252.445	-228.417	1040.293	1264.536	-179.722	1083.677	1094.439	-179.374	1094.868	593.980	-124.615	1191.285	664.646	-202.162	1027.375	654.842	-80.137	1121.699	684.144	-273.053	1005.004	572.550	-85.239	1154.446	602.952	-270.476	809.161	183.931	-64.509	1171.448	180.034	-346.361	817.904	192.552	-104.929	1185.919	189.483	-305.952	897.965	39.359	-142.174	1371.654	83.938	-266.369
	60	0.73333	1004.519	829.799	-184.416	1002.443	812.455	-119.229	997.580	807.777	-236.507	928.659	447.919	-148.353	1142.533	467.183	-244.016	791.655	72.319	-181.807	1252.318	73.409	-245.718	1060.352	889.799	-177.580	1056.052	892.695	-78.001	1064.652	886.903	-277.159	903.599	920.542	-167.888	906.900	916.954	-222.695	932.394	442.798	-93.720	1159.260	475.431	-295.225	927.426	449.751	-193.386	1132.841	445.003	-204.176	779.594	73.463	-145.262	1251.836	73.441	-284.215	811.658	85.258	-210.142	1267.517	95.897	-222.476	966.682	1330.412	-167.934	1061.861	1251.885	-121.711	1060.128	1251.945	-228.698	1046.721	1263.951	-180.138	1090.344	1093.850	-179.900	1099.836	593.056	-124.881	1196.827	664.306	-201.426	1032.345	654.076	-80.616	1127.701	683.675	-272.712	1009.441	571.885	-85.725	1160.413	602.523	-269.790	810.667	184.746	-64.559	1177.624	179.203	-345.023	819.566	193.213	-104.949	1192.115	188.733	-304.570	898.163	39.450	-142.110	1377.912	83.587	-265.258
	61	0.74167	1010.543	829.336	-185.224	1008.172	811.869	-120.041	1003.687	807.272	-237.337	932.863	447.525	-148.648	1148.298	466.708	-243.507	792.168	73.177	-181.736	1257.728	72.768	-244.101	1066.386	889.164	-178.153	1061.765	892.003	-78.615	1071.007	886.325	-277.690	909.629	920.135	-168.922	913.112	916.577	-223.801	936.480	442.487	-93.999	1165.365	474.881	-294.617	931.873	449.742	-194.523	1138.211	444.754	-203.583	780.080	74.491	-145.207	1257.322	72.713	-282.598	812.263	85.985	-210.027	1272.879	95.241	-220.865	973.081	1329.961	-168.379	1068.083	1251.285	-122.118	1066.811	1251.426	-229.128	1053.205	1263.433	-180.571	1096.725	1093.276	-180.312	1104.886	592.159	-125.097	1202.550	664.000	-200.756	1037.251	653.305	-80.813	1133.925	683.326	-272.462	1014.022	571.233	-86.233	1166.461	602.155	-269.231	812.193	185.656	-64.615	1183.364	178.374	-343.737	821.223	193.983	-104.973	1197.816	187.974	-303.256	898.368	39.554	-142.039	1383.438	82.818	-264.071
	62	0.75000	1016.618	828.846	-186.052	1014.002	811.317	-120.913	1009.960	806.816	-238.229	937.181	447.155	-148.945	1154.159	466.264	-243.060	792.732	74.128	-181.657	1262.439	72.033	-242.556	1072.549	888.573	-178.741	1067.552	891.341	-79.249	1077.546	885.804	-278.233	915.763	919.771	-170.019	919.445	916.247	-224.972	940.640	442.217	-94.276	1171.553	474.352	-294.073	936.426	449.349	-195.185	1144.002	444.566	-203.063	780.601	75.624	-145.148	1262.131	71.899	-281.054	813.000	86.809	-209.925	1277.910	94.501	-219.363	979.576	1329.548	-168.913	1074.321	1250.859	-122.579	1073.334	1250.989	-229.564	1059.730	1262.989	-181.031	1102.990	1092.821	-180.664	1109.998	591.285	-125.238	1208.457	663.724	-200.171	1042.153	652.580	-81.239	1140.299	683.077	-272.310	1018.617	570.630	-86.670	1172.791	601.821	-268.748	813.741	186.665	-64.680	1188.690	177.583	-342.522	822.664	194.933	-104.969	1203.048	187.194	-302.028	898.584	39.665	-141.961	1388.256	81.610	-262.778
	63	0.75833	1022.806	828.398	-186.927	1019.940	810.799	-121.841	1016.405	806.409	-239.177	941.626	446.807	-149.242	1160.112	465.867	-242.690	793.342	75.179	-181.562	1266.486	71.255	-241.118	1078.847	888.025	-179.342	1073.420	890.710	-79.899	1084.274	885.340	-278.784	922.008	919.452	-171.177	925.897	915.970	-226.198	944.879	441.990	-94.550	1177.820	473.865	-293.609	940.695	449.351	-195.798	1150.204	444.384	-202.605	781.155	76.869	-145.081	1266.306	71.054	-279.617	813.714	87.757	-209.853	1282.269	93.558	-217.901	986.052	1329.159	-169.426	1080.992	1250.521	-123.083	1079.819	1250.668	-229.982	1066.285	1262.616	-181.532	1109.711	1092.520	-181.202	1115.163	590.430	-125.280	1214.538	663.477	-199.684	1047.381	652.029	-81.636	1146.787	682.815	-272.223	1023.255	570.124	-87.078	1179.314	601.533	-268.351	815.319	187.781	-64.753	1193.649	176.877	-341.405	823.980	196.019	-104.935	1207.782	186.322	-300.821	898.812	39.780	-141.873	1392.397	79.946	-261.359
